<svg width="70" height="26" viewBox="0 0 70 26" fill="none" xmlns="http://www.w3.org/2000/svg">
<g clip-path="url(#clip0)">
<path d="M36.1397 8.61072L39.47 8.39545C39.546 8.93995 39.6852 9.34516 39.9132 9.6364C40.2804 10.0923 40.7869 10.3202 41.458 10.3202C41.9519 10.3202 42.3444 10.2062 42.6104 9.96564C42.8636 9.77569 43.0156 9.47179 43.0156 9.15522C43.0156 8.85131 42.8763 8.56006 42.6357 8.37012C42.3824 8.14219 41.7873 7.91426 40.8502 7.71166C39.318 7.36976 38.2164 6.9139 37.5706 6.33141C36.9248 5.78691 36.5575 4.98915 36.5829 4.14075C36.5829 3.55826 36.7601 2.97577 37.0894 2.49458C37.4692 1.95008 37.9884 1.51955 38.6089 1.27895C39.28 0.987708 40.2171 0.835754 41.3947 0.835754C42.8383 0.835754 43.9399 1.10167 44.6997 1.64617C45.4595 2.17801 45.9153 3.03908 46.0546 4.21672L42.7623 4.40666C42.6737 3.90015 42.4964 3.53293 42.2051 3.29234C41.9139 3.05174 41.534 2.93778 41.0402 2.93778C40.635 2.93778 40.331 3.02642 40.1284 3.19104C39.9385 3.34299 39.8119 3.57092 39.8245 3.82418C39.8245 4.01412 39.9258 4.1914 40.0778 4.30536C40.2424 4.45732 40.635 4.59661 41.2554 4.72323C42.7876 5.05247 43.8766 5.3817 44.5478 5.7236C45.2189 6.06549 45.7001 6.48336 45.9913 6.97721C46.2952 7.48373 46.4472 8.06622 46.4345 8.66137C46.4345 9.37048 46.2319 10.0796 45.8267 10.6748C45.4088 11.2952 44.8263 11.7764 44.1426 12.0677C43.4208 12.3842 42.509 12.5488 41.42 12.5488C39.4953 12.5488 38.1657 12.1816 37.4186 11.4345C36.6715 10.6874 36.2283 9.75037 36.1397 8.61072ZM0.797757 12.3589V1.03836H6.63531C7.71165 1.03836 8.5474 1.127 9.11722 1.31694C9.67439 1.49422 10.1682 1.86144 10.4975 2.35529C10.8647 2.89979 11.042 3.53293 11.0293 4.1914C11.0673 5.30572 10.4975 6.3694 9.52243 6.92656C9.14255 7.14183 8.72468 7.29378 8.29414 7.36976C8.61071 7.4584 8.92728 7.61035 9.20586 7.78763C9.42113 7.96491 9.59841 8.16752 9.76303 8.38278C9.95297 8.59805 10.1176 8.83865 10.2569 9.0919L11.9537 12.3716H7.97757L6.10347 8.8893C5.86288 8.4461 5.66028 8.15485 5.47033 8.01556C5.21708 7.83828 4.91317 7.74964 4.60926 7.74964H4.30536V12.3462H0.797757V12.3589ZM4.30536 5.62229H5.7869C6.10347 5.59697 6.40738 5.54632 6.71129 5.47034C6.93922 5.43235 7.14182 5.30572 7.28112 5.11578C7.62301 4.65992 7.57236 4.01412 7.15449 3.62157C6.92656 3.43163 6.48336 3.33033 5.85022 3.33033H4.30536V5.62229ZM0 22.0586L3.33032 21.8433C3.4063 22.3878 3.54559 22.7931 3.77352 23.0843C4.12808 23.5402 4.64725 23.7808 5.31838 23.7808C5.81223 23.7808 6.20478 23.6668 6.4707 23.4262C6.72395 23.2236 6.87591 22.9323 6.87591 22.6158C6.87591 22.3119 6.73661 22.0206 6.49602 21.8307C6.24276 21.6027 5.64761 21.3748 4.6979 21.1722C3.1657 20.8303 2.06404 20.3745 1.41823 19.792C0.772431 19.2475 0.40521 18.4497 0.430535 17.6013C0.430535 17.0188 0.607815 16.4363 0.937048 15.9551C1.31693 15.4106 1.83611 14.9801 2.45658 14.7395C3.12771 14.4483 4.06476 14.2963 5.2424 14.2963C6.68596 14.2963 7.78763 14.5622 8.5474 15.1067C9.30716 15.6512 9.75036 16.4996 9.88965 17.6773L6.59732 17.8672C6.50868 17.3607 6.3314 16.9935 6.04016 16.7529C5.76158 16.5123 5.36903 16.3983 4.87518 16.411C4.46997 16.411 4.16606 16.4996 3.96346 16.6769C3.76085 16.8289 3.64689 17.0568 3.65955 17.3101C3.65955 17.5 3.76085 17.6773 3.91281 17.7912C4.07742 17.9432 4.46997 18.0825 5.09045 18.2091C6.62265 18.5384 7.71165 18.8676 8.38278 19.2095C9.05391 19.5514 9.53509 19.9692 9.82634 20.4631C10.1302 20.9696 10.2822 21.5521 10.2822 22.1346C10.2822 22.8437 10.0669 23.5402 9.67439 24.1353C9.25651 24.7558 8.67402 25.237 7.99023 25.5282C7.26845 25.8448 6.35673 26.0094 5.26773 26.0094C3.34298 26.0094 2.01339 25.6422 1.26628 24.8951C0.519175 24.1353 0.101302 23.1983 0 22.0586H0Z" fill="white"/>
<path d="M16.8414 21.1722L19.9058 22.0966C19.7412 22.869 19.3993 23.6035 18.9308 24.2493C18.5002 24.8191 17.9304 25.2623 17.2846 25.5536C16.6261 25.8448 15.7904 25.9968 14.7774 25.9968C13.5491 25.9968 12.5361 25.8195 11.7636 25.4649C10.9785 25.1104 10.3074 24.4772 9.73757 23.5782C9.16774 22.6791 8.88916 21.5268 8.88916 20.1212C8.88916 18.2471 9.38301 16.8036 10.3834 15.8032C11.3837 14.8028 12.7893 14.2963 14.6128 14.2963C16.0436 14.2963 17.158 14.5876 17.9811 15.1574C18.7915 15.7399 19.3993 16.6263 19.8045 17.8166L16.7148 18.5004C16.6388 18.2345 16.5248 17.9685 16.3729 17.7406C16.1829 17.4747 15.9423 17.2721 15.6511 17.1201C15.3599 16.9682 15.0306 16.9049 14.7014 16.9049C13.9036 16.9049 13.2958 17.2214 12.8779 17.8672C12.5614 18.3358 12.3968 19.0829 12.3968 20.0959C12.3968 21.3495 12.5867 22.2106 12.9666 22.6791C13.3465 23.1476 13.8783 23.3756 14.5748 23.3756C15.2459 23.3756 15.7524 23.1856 16.0943 22.8184C16.4362 22.4258 16.6895 21.8813 16.8414 21.1722ZM23.9959 14.4863H27.4908V18.4497H31.315V14.4863H34.8353V25.8068H31.315V21.2229H27.4908V25.8068H23.9959V14.4863Z" fill="white"/>
<path d="M34.3545 20.1465C34.3545 18.2978 34.8737 16.8542 35.8994 15.8285C36.925 14.8028 38.3686 14.2837 40.2047 14.2837C42.0915 14.2837 43.535 14.7902 44.5607 15.8032C45.5864 16.8162 46.0929 18.2345 46.0929 20.0579C46.0929 21.3875 45.865 22.4638 45.4218 23.3122C44.9913 24.148 44.3201 24.8318 43.497 25.2876C42.6486 25.7562 41.5976 25.9968 40.344 25.9968C39.0651 25.9968 38.014 25.7942 37.1783 25.3889C36.3172 24.9584 35.6081 24.2873 35.1396 23.4642C34.6204 22.5778 34.3545 21.4761 34.3545 20.1465ZM37.8494 20.1592C37.8494 21.2989 38.0647 22.1219 38.4826 22.6284C38.9004 23.1223 39.4829 23.3756 40.2174 23.3756C40.9645 23.3756 41.547 23.135 41.9648 22.6411C42.3827 22.1473 42.5853 21.2735 42.5853 20.0072C42.5853 18.9436 42.3701 18.1585 41.9395 17.6773C41.509 17.1834 40.9265 16.9429 40.192 16.9429C39.5462 16.9175 38.9258 17.1961 38.4952 17.69C38.0647 18.1838 37.8494 19.0069 37.8494 20.1592ZM49.6765 20.1465C49.6765 18.2978 50.1957 16.8542 51.2214 15.8285C52.247 14.8028 53.6906 14.2837 55.5267 14.2837C57.4135 14.2837 58.8697 14.7902 59.8827 15.8032C60.8957 16.8162 61.4149 18.2345 61.4149 20.0579C61.4149 21.3875 61.187 22.4638 60.7438 23.3122C60.3133 24.148 59.6421 24.8318 58.819 25.2876C57.9706 25.7562 56.9196 25.9968 55.666 25.9968C54.3871 25.9968 53.336 25.7942 52.5003 25.3889C51.6392 24.9584 50.9301 24.2873 50.4616 23.4642C49.9424 22.5778 49.6765 21.4761 49.6765 20.1465ZM53.1714 20.1592C53.1714 21.2989 53.3867 22.1219 53.8046 22.6284C54.2224 23.1223 54.8049 23.3756 55.5394 23.3756C56.2865 23.3756 56.869 23.135 57.2868 22.6411C57.7047 22.1473 57.9073 21.2735 57.9073 20.0072C57.9073 18.9436 57.6921 18.1585 57.2615 17.6773C56.831 17.1834 56.2485 16.9429 55.5141 16.9429C54.8682 16.9175 54.2351 17.1961 53.8172 17.69C53.3867 18.1838 53.1714 19.0069 53.1714 20.1592Z" fill="white"/>
<path d="M61.0473 14.4863H64.5423V23.021H69.9999V25.8068H61.0347V14.4863H61.0473Z" fill="white"/>
<path d="M57.195 13.8329C60.7136 11.1813 61.7987 6.68647 59.6185 3.79335C57.4383 0.900235 52.8184 0.704441 49.2998 3.35603C45.7811 6.00763 44.6961 10.5025 46.8763 13.3956C49.0565 16.2887 53.6763 16.4845 57.195 13.8329Z" fill="#001333"/>
<path fill-rule="evenodd" clip-rule="evenodd" d="M49.4524 3.55827C46.0066 6.15494 45.0093 10.497 47.0787 13.2432C49.1482 15.9894 53.597 16.2273 57.0428 13.6306C60.4885 11.034 61.4859 6.69192 59.4164 3.94574C57.3469 1.19956 52.8982 0.961588 49.4524 3.55827ZM46.6742 13.548C44.3833 10.508 45.556 5.86026 49.1476 3.15375C52.7391 0.447248 57.53 0.600862 59.8209 3.64091C62.1118 6.68096 60.9391 11.3287 57.3476 14.0352C53.7561 16.7417 48.9652 16.5881 46.6742 13.548Z" fill="white"/>
<path d="M49.6886 7.7623L50.9549 6.87591L52.5125 9.0919C52.7784 9.44646 52.981 9.82634 53.1329 10.2442C53.2216 10.5608 53.1962 10.9027 53.0696 11.2066C52.905 11.5865 52.6391 11.903 52.2845 12.131C51.8666 12.4222 51.5121 12.5868 51.2082 12.6375C50.9169 12.6881 50.613 12.6375 50.3344 12.5109C50.0305 12.3589 49.7646 12.1436 49.562 11.8651L50.651 10.852C50.7397 10.9913 50.8536 11.1179 50.9802 11.2193C51.0689 11.2826 51.1702 11.3206 51.2842 11.3206C51.3728 11.3206 51.4614 11.2826 51.5247 11.2319C51.6514 11.1559 51.74 11.004 51.7274 10.852C51.6894 10.6368 51.6007 10.4215 51.4614 10.2569L49.6886 7.7623ZM53.4875 9.16788L54.6398 8.25615C54.7664 8.40811 54.931 8.52207 55.1083 8.58539C55.3616 8.66136 55.6275 8.61071 55.8428 8.4461C55.9947 8.34479 56.1214 8.2055 56.172 8.02822C56.248 7.80029 56.1214 7.54704 55.8934 7.47106C55.8554 7.4584 55.8174 7.44573 55.7795 7.44573C55.6275 7.43307 55.3616 7.49639 54.969 7.661C54.3232 7.92692 53.8167 8.02822 53.4368 7.99024C53.0696 7.95225 52.7277 7.7623 52.5251 7.44573C52.3732 7.23047 52.2972 6.97721 52.2845 6.72395C52.2845 6.43271 52.3605 6.14147 52.5251 5.90087C52.7657 5.55898 53.0569 5.26773 53.4115 5.0398C53.9433 4.67258 54.4119 4.4953 54.8171 4.4953C55.2223 4.4953 55.6022 4.68524 55.9567 5.07779L54.8171 5.97685C54.5892 5.6856 54.1586 5.62229 53.8674 5.85022L53.8294 5.88821C53.7028 5.96419 53.6141 6.07815 53.5635 6.21744C53.5255 6.31874 53.5508 6.43271 53.6141 6.52135C53.6648 6.58466 53.7407 6.63532 53.8294 6.63532C53.9307 6.64798 54.108 6.59733 54.3612 6.48336C54.9944 6.21744 55.4755 6.06549 55.8048 6.01484C56.0834 5.96419 56.3746 5.98951 56.6405 6.10348C56.8811 6.20478 57.0837 6.38206 57.223 6.59733C57.4003 6.85058 57.5016 7.15449 57.5143 7.47106C57.5269 7.80029 57.4383 8.11686 57.261 8.39545C57.0331 8.73734 56.7418 9.02859 56.3999 9.25652C55.7035 9.7377 55.1337 9.94031 54.6778 9.86433C54.1839 9.78835 53.7787 9.5351 53.4875 9.16788Z" fill="white"/>
</g>
<defs>
<clipPath id="clip0">
<rect width="70" height="25.9967" fill="white"/>
</clipPath>
</defs>
</svg>
